<svg id="Layer_1" data-name="Layer 1" xmlns="http://www.w3.org/2000/svg" viewBox="0 0 595.28 841.89"><defs><style>.cls-1{fill:#231f20;}</style></defs><path class="cls-1" d="M149.89,496.72c-10-14.81-32.51-101.1-20.08-125.78,2.55-5.07,17.36-23.15,23.83-31.49s24.85-40.68,28.76-42.39,11.07-3.06,15.83,6.47.86,19.07-.68,24.17-17.53,31.49-26.38,50-1.7,42.56,1.36,53.28,21.45,38.3,30.13,50.21,26.72,26.39,27.06,25.88-4.25-8.34-7-12.26S203.51,457.4,201,449.24s-2.56-26.05-1-36.09,6.63-14.47,13.78-12.94,10.22,13.79,10.22,19.58,10.38,20.42,12.76,24,18.39,18.55,32.51,37.1,20.26,47.32,21.79,41.88a163.93,163.93,0,0,1,11.23-26.56c4.09-7.15,16.86-26.55,22-31.49s19.92-22.81,25.53-29.27S357,413,358.57,407.53s8.86-11.91,16.17-6.47,6.64,16.34,6.47,33.71-10.55,34.55-11.91,38-21.45,34.9-18.39,33.71,16.18-11.24,32.69-33,25.7-48.68,28.76-63.49S410,381.49,409.3,377.4,398.57,356.64,393,346.26s-13.62-29.62-12.77-40,13.28-11.24,16-10.22,5.79.51,22.81,31.49c15.47,28.16,21.24,30.86,29.07,41.1a15.44,15.44,0,0,1,3,7.49c2.74,23,1.51,85.88-26.83,127.92C399,541.59,321.84,585.31,297.16,598.68a15.12,15.12,0,0,1-15.05-.38c-20.18-12.29-75.7-46.23-87.62-55.11C179.85,532.3,157.57,508.05,149.89,496.72Z"/><path class="cls-1" d="M209.47,302.17s2,13.28,0,24.51-8.85,22.13-16.68,31.66-15,24.85-14.64,36.77,4.08,25.83,4.08,25.83,7.15-21.41,13.62-31.28,35.75-30,37.45-37.11-3.75-12.93-6.47-13.95c0,0,4.77-15.32,4.08-25.2s-3.4-13.61-10.89-15.66A8.86,8.86,0,0,0,209.47,302.17Z"/><path class="cls-1" d="M370.56,302.17s-2,13.28,0,24.51,8.85,22.13,16.68,31.66,15,24.85,14.64,36.77-4.09,25.83-4.09,25.83-7.14-21.41-13.61-31.28-35.75-30-37.45-37.11,3.75-12.93,6.47-13.95c0,0-4.77-15.32-4.09-25.2s3.41-13.61,10.9-15.66A8.86,8.86,0,0,1,370.56,302.17Z"/><path class="cls-1" d="M307.85,376.72c-13.28,0-18.72,8.17-18.72,8.17s-5.45-8.17-18.73-8.17-27.23,8.17-26.55,21.79,7.51,19.88,15,26.21c7.13,6,30.3,24.26,30.3,24.26s23.17-18.21,30.3-24.26c7.47-6.33,14.29-12.59,15-26.21S321.13,376.72,307.85,376.72Z"/></svg>